<svg width="118" height="174" viewBox="0 0 118 174" fill="none" xmlns="http://www.w3.org/2000/svg">
<path d="M8.16471 112.831H26.5237V117.68H16.4559V123.213H25.3393V127.951H16.4559V133.67H26.5237V139H8.16471V112.831ZM31.132 125.971C31.132 123.861 31.5083 121.967 32.2609 120.289C33.0258 118.599 34.0561 117.168 35.3516 115.996C36.6471 114.811 38.1523 113.904 39.8673 113.275C41.5823 112.646 43.4021 112.331 45.3269 112.331C46.6717 112.331 48.0412 112.461 49.4354 112.72C50.8296 112.979 52.2177 113.448 53.5995 114.127L52.4521 120.049C51.3663 119.457 50.2929 119.012 49.2319 118.716C48.1708 118.42 47.1961 118.272 46.3077 118.272C45.2343 118.272 44.272 118.451 43.4206 118.809C42.5693 119.154 41.8475 119.66 41.2553 120.326C40.6631 120.993 40.2066 121.801 39.8858 122.751C39.5773 123.701 39.4231 124.774 39.4231 125.971C39.4231 127.168 39.5773 128.241 39.8858 129.191C40.2066 130.141 40.6631 130.949 41.2553 131.616C41.8475 132.282 42.5693 132.794 43.4206 133.152C44.272 133.497 45.2343 133.67 46.3077 133.67C47.1961 133.67 48.1708 133.522 49.2319 133.226C50.2929 132.93 51.3663 132.486 52.4521 131.893L53.5995 137.816C52.2177 138.482 50.8296 138.932 49.4354 139.167C48.0412 139.413 46.6717 139.537 45.3269 139.537C43.4021 139.537 41.5823 139.228 39.8673 138.611C38.1523 137.982 36.6471 137.088 35.3516 135.928C34.0561 134.756 33.0258 133.331 32.2609 131.653C31.5083 129.975 31.132 128.081 31.132 125.971ZM59.0221 112.831H67.3132V123.01H75.0122V112.831H83.3033V139H75.0122V128.34H67.3132V139H59.0221V112.831ZM101.181 139.537C99.5649 139.537 98.1213 139.358 96.8505 139C95.5797 138.655 94.4569 138.173 93.4822 137.556C92.5199 136.927 91.6994 136.187 91.0208 135.336C90.3545 134.472 89.8055 133.54 89.3737 132.541C88.9542 131.529 88.6457 130.468 88.4483 129.358C88.2632 128.247 88.1707 127.118 88.1707 125.971C88.1707 124.836 88.2879 123.713 88.5223 122.603C88.7568 121.48 89.1084 120.413 89.5772 119.401C90.0461 118.389 90.6383 117.452 91.3539 116.588C92.0695 115.724 92.9085 114.978 93.8709 114.349C94.8332 113.719 95.919 113.226 97.1281 112.868C98.3496 112.51 99.7006 112.331 101.181 112.331C102.662 112.331 104.007 112.51 105.216 112.868C106.437 113.226 107.529 113.719 108.491 114.349C109.466 114.978 110.311 115.724 111.027 116.588C111.743 117.452 112.335 118.389 112.804 119.401C113.285 120.413 113.643 121.48 113.877 122.603C114.111 123.713 114.229 124.836 114.229 125.971C114.229 127.118 114.13 128.247 113.933 129.358C113.735 130.468 113.42 131.529 112.989 132.541C112.569 133.54 112.02 134.472 111.342 135.336C110.663 136.187 109.842 136.927 108.88 137.556C107.918 138.173 106.795 138.655 105.512 139C104.241 139.358 102.797 139.537 101.181 139.537ZM96.4619 125.971C96.4619 127.452 96.5667 128.716 96.7765 129.765C96.9986 130.814 97.307 131.671 97.7018 132.337C98.109 133.004 98.6025 133.491 99.1824 133.8C99.7746 134.108 100.441 134.262 101.181 134.262C101.921 134.262 102.582 134.108 103.161 133.8C103.754 133.491 104.253 133.004 104.66 132.337C105.08 131.671 105.395 130.814 105.604 129.765C105.826 128.716 105.937 127.452 105.937 125.971C105.937 124.49 105.826 123.226 105.604 122.177C105.395 121.116 105.08 120.252 104.66 119.586C104.253 118.908 103.754 118.408 103.161 118.087C102.582 117.766 101.921 117.606 101.181 117.606C100.441 117.606 99.7746 117.766 99.1824 118.087C98.6025 118.408 98.109 118.908 97.7018 119.586C97.307 120.252 96.9986 121.116 96.7765 122.177C96.5667 123.226 96.4619 124.49 96.4619 125.971Z" fill="#6E0099"/>
<path d="M100.405 55.8092L86.3094 27.6188C84.9458 24.8917 81.0542 24.8917 79.6906 27.6188L72.5733 41.8534L54.5285 5.76393C52.6859 2.07869 47.4269 2.07869 45.5843 5.76393L21.144 54.6444C32.0445 46.6925 45.4743 42 60 42C75.2214 42 89.2393 47.1528 100.405 55.8092Z" fill="#6E0099"/>
<path d="M110.538 76.0766C99.2993 60.2937 80.8518 50 60 50C40.7781 50 23.5992 58.7474 12.2269 72.4786L3.32304 90.2864C2.12389 92.6847 4.46663 95.3204 7.00742 94.4636C9.7635 93.5341 12.353 92.669 14.7985 91.8678C24.2865 76.9203 40.9848 67 60 67C78.1005 67 94.1016 75.9889 103.783 89.7462C107.069 90.7522 110.73 91.9441 114.907 93.3197C116.783 93.9373 118.496 91.9927 117.613 90.2266L110.538 76.0766Z" fill="#6E0099"/>
<path d="M16.0347 147.833C24.5017 163.419 41.0152 174 60 174C79.3211 174 96.0826 163.041 104.408 147H15.5924C15.7373 147.279 15.8847 147.557 16.0347 147.833Z" fill="#6E0099"/>
<path d="M13.7365 105H106.264C106.2 104.846 106.136 104.691 106.071 104.538C103.783 99.1281 100.57 94.205 96.6299 89.9666C87.5 80.1446 74.4676 74 60 74C46.1023 74 33.5289 79.6701 24.467 88.8232C23.9634 89.3319 23.4706 89.8513 22.9891 90.3811C19.1123 94.6465 15.9628 99.5848 13.7365 105Z" fill="#6E0099"/>
<path d="M97.4046 52.8092L83.3094 24.6188C81.9458 21.8917 78.0542 21.8917 76.6906 24.6188L69.5733 38.8534L51.5285 2.76393C49.6859 -0.921311 44.4269 -0.921311 42.5843 2.76393L18.144 51.6444C29.0445 43.6925 42.4743 39 57 39C72.2214 39 86.2393 44.1528 97.4046 52.8092Z" fill="#FFD633"/>
<path d="M107.538 73.0766C96.2993 57.2937 77.8518 47 57 47C37.7781 47 20.5992 55.7474 9.22692 69.4786L0.32304 87.2864C-0.876112 89.6847 1.46663 92.3204 4.00742 91.4636C6.7635 90.5341 9.35305 89.669 11.7985 88.8678C21.2865 73.9203 37.9848 64 57 64C75.1005 64 91.1016 72.9889 100.783 86.7462C104.069 87.7522 107.73 88.9441 111.907 90.3197C113.783 90.9373 115.496 88.9927 114.613 87.2266L107.538 73.0766Z" fill="#FFD633"/>
<path d="M13.0347 144.833C21.5017 160.419 38.0152 171 57 171C76.3211 171 93.0826 160.041 101.408 144H12.5924C12.7373 144.279 12.8847 144.557 13.0347 144.833Z" fill="#FFD633"/>
<path d="M10.7365 102H103.264C103.2 101.846 103.136 101.691 103.071 101.538C100.783 96.1281 97.5696 91.205 93.6299 86.9666C84.5 77.1446 71.4676 71 57 71C43.1023 71 30.5289 76.6701 21.467 85.8232C20.9634 86.3319 20.4706 86.8513 19.9891 87.3811C16.1123 91.6465 12.9628 96.5848 10.7365 102Z" fill="#FFD633"/>
<path d="M5.16471 109.831H23.5237V114.68H13.4559V120.213H22.3393V124.951H13.4559V130.67H23.5237V136H5.16471V109.831ZM28.132 122.971C28.132 120.861 28.5083 118.967 29.2609 117.289C30.0258 115.599 31.0561 114.168 32.3516 112.996C33.6471 111.811 35.1523 110.904 36.8673 110.275C38.5823 109.646 40.4021 109.331 42.3269 109.331C43.6717 109.331 45.0412 109.461 46.4354 109.72C47.8296 109.979 49.2177 110.448 50.5995 111.127L49.4521 117.049C48.3663 116.457 47.2929 116.012 46.2319 115.716C45.1708 115.42 44.1961 115.272 43.3077 115.272C42.2343 115.272 41.272 115.451 40.4206 115.809C39.5693 116.154 38.8475 116.66 38.2553 117.326C37.6631 117.993 37.2066 118.801 36.8858 119.751C36.5773 120.701 36.4231 121.774 36.4231 122.971C36.4231 124.168 36.5773 125.241 36.8858 126.191C37.2066 127.141 37.6631 127.949 38.2553 128.616C38.8475 129.282 39.5693 129.794 40.4206 130.152C41.272 130.497 42.2343 130.67 43.3077 130.67C44.1961 130.67 45.1708 130.522 46.2319 130.226C47.2929 129.93 48.3663 129.486 49.4521 128.893L50.5995 134.816C49.2177 135.482 47.8296 135.932 46.4354 136.167C45.0412 136.413 43.6717 136.537 42.3269 136.537C40.4021 136.537 38.5823 136.228 36.8673 135.611C35.1523 134.982 33.6471 134.088 32.3516 132.928C31.0561 131.756 30.0258 130.331 29.2609 128.653C28.5083 126.975 28.132 125.081 28.132 122.971ZM56.0221 109.831H64.3132V120.01H72.0122V109.831H80.3033V136H72.0122V125.34H64.3132V136H56.0221V109.831ZM98.1812 136.537C96.5649 136.537 95.1213 136.358 93.8505 136C92.5797 135.655 91.4569 135.173 90.4822 134.556C89.5199 133.927 88.6994 133.187 88.0208 132.336C87.3545 131.472 86.8055 130.54 86.3737 129.541C85.9542 128.529 85.6457 127.468 85.4483 126.358C85.2632 125.247 85.1707 124.118 85.1707 122.971C85.1707 121.836 85.2879 120.713 85.5223 119.603C85.7568 118.48 86.1084 117.413 86.5772 116.401C87.0461 115.389 87.6383 114.452 88.3539 113.588C89.0695 112.724 89.9085 111.978 90.8709 111.349C91.8332 110.719 92.919 110.226 94.1281 109.868C95.3496 109.51 96.7006 109.331 98.1812 109.331C99.6617 109.331 101.007 109.51 102.216 109.868C103.437 110.226 104.529 110.719 105.491 111.349C106.466 111.978 107.311 112.724 108.027 113.588C108.743 114.452 109.335 115.389 109.804 116.401C110.285 117.413 110.643 118.48 110.877 119.603C111.111 120.713 111.229 121.836 111.229 122.971C111.229 124.118 111.13 125.247 110.933 126.358C110.735 127.468 110.42 128.529 109.989 129.541C109.569 130.54 109.02 131.472 108.342 132.336C107.663 133.187 106.842 133.927 105.88 134.556C104.918 135.173 103.795 135.655 102.512 136C101.241 136.358 99.7974 136.537 98.1812 136.537ZM93.4619 122.971C93.4619 124.452 93.5667 125.716 93.7765 126.765C93.9986 127.814 94.307 128.671 94.7018 129.337C95.109 130.004 95.6025 130.491 96.1824 130.8C96.7746 131.108 97.4409 131.262 98.1812 131.262C98.9214 131.262 99.5815 131.108 100.161 130.8C100.754 130.491 101.253 130.004 101.66 129.337C102.08 128.671 102.395 127.814 102.604 126.765C102.826 125.716 102.937 124.452 102.937 122.971C102.937 121.49 102.826 120.226 102.604 119.177C102.395 118.116 102.08 117.252 101.66 116.586C101.253 115.908 100.754 115.408 100.161 115.087C99.5815 114.766 98.9214 114.606 98.1812 114.606C97.4409 114.606 96.7746 114.766 96.1824 115.087C95.6025 115.408 95.109 115.908 94.7018 116.586C94.307 117.252 93.9986 118.116 93.7765 119.177C93.5667 120.226 93.4619 121.49 93.4619 122.971Z" fill="#FFD633"/>
</svg>
