<svg width="115" height="171" viewBox="0 0 115 171" fill="none" xmlns="http://www.w3.org/2000/svg">
<path d="M97.4046 52.8092L83.3094 24.6188C81.9458 21.8917 78.0542 21.8917 76.6906 24.6188L69.5733 38.8534L51.5285 2.76393C49.6859 -0.921311 44.4269 -0.921311 42.5843 2.76393L18.144 51.6444C29.0445 43.6925 42.4743 39 57 39C72.2214 39 86.2393 44.1528 97.4046 52.8092Z" fill="#6E0099"/>
<path d="M107.538 73.0766C96.2993 57.2937 77.8518 47 57 47C37.7781 47 20.5992 55.7474 9.22692 69.4786L0.32304 87.2864C-0.876112 89.6847 1.46663 92.3204 4.00742 91.4636C6.7635 90.5341 9.35305 89.669 11.7985 88.8678C21.2865 73.9203 37.9848 64 57 64C75.1005 64 91.1016 72.9889 100.783 86.7462C104.069 87.7522 107.73 88.9441 111.907 90.3197C113.783 90.9373 115.496 88.9927 114.613 87.2266L107.538 73.0766Z" fill="#6E0099"/>
<path d="M13.0347 144.833C21.5017 160.419 38.0152 171 57 171C76.3211 171 93.0826 160.041 101.408 144H12.5924C12.7373 144.279 12.8847 144.557 13.0347 144.833Z" fill="#6E0099"/>
<path d="M10.7365 102H103.264C103.2 101.846 103.136 101.691 103.071 101.538C100.783 96.1281 97.5696 91.205 93.6299 86.9666C84.5 77.1446 71.4676 71 57 71C43.1023 71 30.5289 76.6701 21.467 85.8232C20.9634 86.3319 20.4706 86.8513 19.9891 87.3811C16.1123 91.6465 12.9628 96.5848 10.7365 102Z" fill="#6E0099"/>
<path d="M5.16471 109.831H23.5237V114.68H13.4559V120.213H22.3393V124.951H13.4559V130.67H23.5237V136H5.16471V109.831ZM28.132 122.971C28.132 120.861 28.5083 118.967 29.2609 117.289C30.0258 115.599 31.0561 114.168 32.3516 112.996C33.6471 111.811 35.1523 110.904 36.8673 110.275C38.5823 109.646 40.4021 109.331 42.3269 109.331C43.6717 109.331 45.0412 109.461 46.4354 109.72C47.8296 109.979 49.2177 110.448 50.5995 111.127L49.4521 117.049C48.3663 116.457 47.2929 116.012 46.2319 115.716C45.1708 115.42 44.1961 115.272 43.3077 115.272C42.2343 115.272 41.272 115.451 40.4206 115.809C39.5693 116.154 38.8475 116.66 38.2553 117.326C37.6631 117.993 37.2066 118.801 36.8858 119.751C36.5773 120.701 36.4231 121.774 36.4231 122.971C36.4231 124.168 36.5773 125.241 36.8858 126.191C37.2066 127.141 37.6631 127.949 38.2553 128.616C38.8475 129.282 39.5693 129.794 40.4206 130.152C41.272 130.497 42.2343 130.67 43.3077 130.67C44.1961 130.67 45.1708 130.522 46.2319 130.226C47.2929 129.93 48.3663 129.486 49.4521 128.893L50.5995 134.816C49.2177 135.482 47.8296 135.932 46.4354 136.167C45.0412 136.413 43.6717 136.537 42.3269 136.537C40.4021 136.537 38.5823 136.228 36.8673 135.611C35.1523 134.982 33.6471 134.088 32.3516 132.928C31.0561 131.756 30.0258 130.331 29.2609 128.653C28.5083 126.975 28.132 125.081 28.132 122.971ZM56.0221 109.831H64.3132V120.01H72.0122V109.831H80.3033V136H72.0122V125.34H64.3132V136H56.0221V109.831ZM98.1812 136.537C96.5649 136.537 95.1213 136.358 93.8505 136C92.5797 135.655 91.4569 135.173 90.4822 134.556C89.5199 133.927 88.6994 133.187 88.0208 132.336C87.3545 131.472 86.8055 130.54 86.3737 129.541C85.9542 128.529 85.6457 127.468 85.4483 126.358C85.2632 125.247 85.1707 124.118 85.1707 122.971C85.1707 121.836 85.2879 120.713 85.5223 119.603C85.7568 118.48 86.1084 117.413 86.5772 116.401C87.0461 115.389 87.6383 114.452 88.3539 113.588C89.0695 112.724 89.9085 111.978 90.8709 111.349C91.8332 110.719 92.919 110.226 94.1281 109.868C95.3496 109.51 96.7006 109.331 98.1812 109.331C99.6617 109.331 101.007 109.51 102.216 109.868C103.437 110.226 104.529 110.719 105.491 111.349C106.466 111.978 107.311 112.724 108.027 113.588C108.743 114.452 109.335 115.389 109.804 116.401C110.285 117.413 110.643 118.48 110.877 119.603C111.111 120.713 111.229 121.836 111.229 122.971C111.229 124.118 111.13 125.247 110.933 126.358C110.735 127.468 110.42 128.529 109.989 129.541C109.569 130.54 109.02 131.472 108.342 132.336C107.663 133.187 106.842 133.927 105.88 134.556C104.918 135.173 103.795 135.655 102.512 136C101.241 136.358 99.7974 136.537 98.1812 136.537ZM93.4619 122.971C93.4619 124.452 93.5667 125.716 93.7765 126.765C93.9986 127.814 94.307 128.671 94.7018 129.337C95.109 130.004 95.6025 130.491 96.1824 130.8C96.7746 131.108 97.4409 131.262 98.1812 131.262C98.9214 131.262 99.5815 131.108 100.161 130.8C100.754 130.491 101.253 130.004 101.66 129.337C102.08 128.671 102.395 127.814 102.604 126.765C102.826 125.716 102.937 124.452 102.937 122.971C102.937 121.49 102.826 120.226 102.604 119.177C102.395 118.116 102.08 117.252 101.66 116.586C101.253 115.908 100.754 115.408 100.161 115.087C99.5815 114.766 98.9214 114.606 98.1812 114.606C97.4409 114.606 96.7746 114.766 96.1824 115.087C95.6025 115.408 95.109 115.908 94.7018 116.586C94.307 117.252 93.9986 118.116 93.7765 119.177C93.5667 120.226 93.4619 121.49 93.4619 122.971Z" fill="#6E0099"/>
</svg>
