<svg width="333" height="118" viewBox="0 0 333 118" fill="none" xmlns="http://www.w3.org/2000/svg">
<path d="M97.4046 67.9299L83.3094 39.7394C81.9458 37.0124 78.0542 37.0124 76.6906 39.7394L69.5733 53.9741L51.5285 17.8846C49.6859 14.1994 44.4269 14.1994 42.5843 17.8846L18.144 66.7651C29.0445 58.8132 42.4743 54.1207 57 54.1207C72.2214 54.1207 86.2393 59.2735 97.4046 67.9299Z" fill="#6E0099"/>
<path d="M107.538 88.1973C96.2993 72.4143 77.8518 62.1207 57 62.1207C37.7781 62.1207 20.5992 70.8681 9.22692 84.5993L0.32304 102.407C-0.876112 104.805 1.46663 107.441 4.00742 106.584C6.7635 105.655 9.35305 104.79 11.7985 103.988C21.2865 89.041 37.9848 79.1207 57 79.1207C75.1005 79.1207 91.1016 88.1095 100.783 101.867C104.069 102.873 107.73 104.065 111.907 105.44C113.783 106.058 115.496 104.113 114.613 102.347L107.538 88.1973Z" fill="#6E0099"/>
<path d="M103.264 117.121C103.2 116.966 103.136 116.812 103.071 116.658C100.783 111.249 97.5696 106.326 93.6299 102.087C84.5 92.2653 71.4676 86.1207 57 86.1207C43.1023 86.1207 30.5289 91.7908 21.467 100.944C20.9634 101.453 20.4706 101.972 19.9891 102.502C16.1123 106.767 12.9628 111.705 10.7365 117.121H103.264Z" fill="#6E0099"/>
<path d="M125.097 28.5861H160.465V37.9273H141.069V48.5877H158.183V57.7149H141.069V68.7318H160.465V79H125.097V28.5861ZM169.343 53.9C169.343 49.8356 170.067 46.187 171.517 42.9545C172.991 39.6981 174.976 36.9409 177.472 34.6829C179.967 32.4011 182.867 30.654 186.171 29.4418C189.475 28.2296 192.981 27.6235 196.689 27.6235C199.279 27.6235 201.918 27.8731 204.604 28.3722C207.29 28.8714 209.964 29.7746 212.626 31.0819L210.415 42.491C208.324 41.3501 206.256 40.4944 204.212 39.9239C202.167 39.3535 200.29 39.0682 198.578 39.0682C196.51 39.0682 194.656 39.4129 193.016 40.1022C191.376 40.7677 189.986 41.7422 188.845 43.0258C187.704 44.3093 186.825 45.8661 186.207 47.6963C185.612 49.5266 185.315 51.5945 185.315 53.9C185.315 56.2056 185.612 58.2735 186.207 60.1037C186.825 61.9339 187.704 63.4908 188.845 64.7743C189.986 66.0578 191.376 67.0442 193.016 67.7335C194.656 68.3991 196.51 68.7318 198.578 68.7318C200.29 68.7318 202.167 68.4466 204.212 67.8762C206.256 67.3057 208.324 66.45 210.415 65.3091L212.626 76.7182C209.964 78.0017 207.29 78.8693 204.604 79.3209C201.918 79.7963 199.279 80.0339 196.689 80.0339C192.981 80.0339 189.475 79.4397 186.171 78.2513C182.867 77.0391 179.967 75.3158 177.472 73.0815C174.976 70.8235 172.991 68.0782 171.517 64.8456C170.067 61.613 169.343 57.9645 169.343 53.9ZM223.072 28.5861H239.045V48.1955H253.877V28.5861H269.849V79H253.877V58.4637H239.045V79H223.072V28.5861ZM304.291 80.0339C301.177 80.0339 298.396 79.6893 295.948 79C293.499 78.3345 291.336 77.4075 289.459 76.219C287.605 75.0068 286.024 73.5807 284.717 71.9406C283.433 70.2768 282.376 68.4823 281.544 66.557C280.736 64.6079 280.141 62.5638 279.761 60.4246C279.404 58.2854 279.226 56.1105 279.226 53.9C279.226 51.7133 279.452 49.5503 279.904 47.4111C280.355 45.2482 281.033 43.1921 281.936 41.2431C282.839 39.294 283.98 37.4876 285.359 35.8238C286.737 34.16 288.353 32.7219 290.207 31.5097C292.061 30.2975 294.153 29.3468 296.482 28.6575C298.836 27.9682 301.438 27.6235 304.291 27.6235C307.143 27.6235 309.734 27.9682 312.063 28.6575C314.416 29.3468 316.52 30.2975 318.374 31.5097C320.251 32.7219 321.88 34.16 323.258 35.8238C324.637 37.4876 325.778 39.294 326.681 41.2431C327.608 43.1921 328.297 45.2482 328.749 47.4111C329.2 49.5503 329.426 51.7133 329.426 53.9C329.426 56.1105 329.236 58.2854 328.856 60.4246C328.475 62.5638 327.869 64.6079 327.037 66.557C326.229 68.4823 325.171 70.2768 323.864 71.9406C322.557 73.5807 320.976 75.0068 319.122 76.219C317.268 77.4075 315.105 78.3345 312.633 79C310.185 79.6893 307.404 80.0339 304.291 80.0339ZM295.199 53.9C295.199 56.7523 295.401 59.1886 295.805 61.209C296.233 63.2293 296.827 64.8813 297.588 66.1648C298.372 67.4483 299.323 68.3872 300.44 68.9814C301.581 69.5756 302.864 69.8727 304.291 69.8727C305.717 69.8727 306.988 69.5756 308.105 68.9814C309.246 68.3872 310.209 67.4483 310.993 66.1648C311.801 64.8813 312.408 63.2293 312.812 61.209C313.24 59.1886 313.453 56.7523 313.453 53.9C313.453 51.0478 313.24 48.6115 312.812 46.5911C312.408 44.547 311.801 42.8831 310.993 41.5996C310.209 40.2923 309.246 39.3297 308.105 38.7117C306.988 38.0937 305.717 37.7847 304.291 37.7847C302.864 37.7847 301.581 38.0937 300.44 38.7117C299.323 39.3297 298.372 40.2923 297.588 41.5996C296.827 42.8831 296.233 44.547 295.805 46.5911C295.401 48.6115 295.199 51.0478 295.199 53.9Z" fill="#6E0099"/>
<path d="M132.045 98.5657C132.558 98.7057 133.054 98.9157 133.532 99.1957L133.077 100.036C132.716 99.849 132.29 99.6915 131.8 99.5632C131.321 99.4348 130.878 99.3707 130.47 99.3707C129.781 99.3707 129.146 99.5573 128.562 99.9307C127.991 100.304 127.571 100.776 127.302 101.348C127.034 101.92 126.9 102.567 126.9 103.291C126.9 104.072 127.063 104.761 127.39 105.356C127.716 105.939 128.154 106.388 128.702 106.703C129.041 106.89 129.361 107.03 129.665 107.123C129.968 107.205 130.306 107.246 130.68 107.246C131.065 107.246 131.456 107.181 131.852 107.053C132.261 106.925 132.599 106.75 132.867 106.528V103.973H130.102V103.028H133.935V106.896C133.573 107.257 133.124 107.555 132.587 107.788C131.899 108.103 131.123 108.261 130.26 108.261C129.385 108.261 128.591 108.045 127.88 107.613C127.168 107.17 126.62 106.581 126.235 105.846C125.826 105.087 125.622 104.265 125.622 103.378C125.622 102.386 125.832 101.511 126.252 100.753C126.684 99.9948 127.25 99.4115 127.95 99.0032C128.661 98.5715 129.466 98.3557 130.365 98.3557C130.983 98.3557 131.543 98.4257 132.045 98.5657ZM138.385 101.313C139.271 101.313 139.954 101.582 140.432 102.118C140.91 102.643 141.15 103.39 141.15 104.358V104.971L141.08 105.111H136.477C136.477 105.682 136.693 106.213 137.125 106.703C137.533 107.111 138.169 107.316 139.032 107.316C139.604 107.316 140.146 107.228 140.66 107.053L140.87 107.893C140.158 108.138 139.44 108.261 138.717 108.261C137.632 108.261 136.804 107.969 136.232 107.386C135.66 106.802 135.375 105.968 135.375 104.883C135.375 103.856 135.625 103.011 136.127 102.346C136.664 101.657 137.416 101.313 138.385 101.313ZM139.995 104.201C139.995 103.617 139.866 103.139 139.61 102.766C139.365 102.392 138.997 102.206 138.507 102.206C137.889 102.206 137.416 102.392 137.09 102.766C136.763 103.139 136.565 103.617 136.495 104.201H139.995ZM150.79 103.851C150.79 102.754 150.353 102.206 149.478 102.206C149.046 102.206 148.51 102.404 147.868 102.801C147.903 102.929 147.92 103.186 147.92 103.571V108.121H146.783V103.851C146.783 102.754 146.34 102.206 145.453 102.206C145.033 102.206 144.514 102.375 143.895 102.713V108.121H142.758V101.401H143.545L143.79 101.961C144.187 101.692 144.555 101.506 144.893 101.401C145.161 101.331 145.47 101.296 145.82 101.296C146.205 101.296 146.544 101.372 146.835 101.523C147.139 101.675 147.384 101.885 147.57 102.153C147.955 101.873 148.323 101.663 148.673 101.523C149.023 101.372 149.408 101.296 149.828 101.296C150.516 101.296 151.041 101.506 151.403 101.926C151.776 102.334 151.963 102.882 151.963 103.571V108.121H150.79V103.851ZM156.03 102.293C155.785 102.293 155.487 102.322 155.137 102.381C154.799 102.427 154.495 102.491 154.227 102.573L154 101.733C154.781 101.465 155.51 101.331 156.187 101.331C156.945 101.331 157.523 101.447 157.92 101.681C158.27 101.937 158.509 102.211 158.637 102.503C158.777 102.795 158.847 103.221 158.847 103.781V108.121H157.99L157.745 107.491C157.08 108.027 156.397 108.296 155.697 108.296C155.09 108.296 154.577 108.121 154.157 107.771C153.749 107.421 153.545 106.977 153.545 106.441C153.545 105.916 153.702 105.484 154.017 105.146C154.344 104.796 154.74 104.562 155.207 104.446C155.802 104.294 156.636 104.206 157.71 104.183V104.131C157.71 103.652 157.663 103.302 157.57 103.081C157.383 102.556 156.87 102.293 156.03 102.293ZM155.855 107.386C156.24 107.386 156.578 107.321 156.87 107.193C157.161 107.053 157.441 106.861 157.71 106.616V105.006C156.905 105.017 156.31 105.064 155.925 105.146C155.493 105.239 155.172 105.379 154.962 105.566C154.752 105.741 154.647 105.991 154.647 106.318C154.647 106.656 154.764 106.919 154.997 107.106C155.242 107.292 155.528 107.386 155.855 107.386ZM171.189 101.331C171.166 101.961 170.991 102.497 170.664 102.941C170.349 103.384 169.929 103.693 169.404 103.868C169.159 103.95 168.821 104.014 168.389 104.061C167.958 104.107 167.526 104.131 167.094 104.131C166.604 104.131 166.219 104.119 165.939 104.096V108.121H164.784V98.4957H167.812C168.267 98.4957 168.594 98.5132 168.792 98.5482C169.002 98.5715 169.206 98.6065 169.404 98.6532C169.964 98.8515 170.402 99.184 170.717 99.6507C171.032 100.106 171.189 100.666 171.189 101.331ZM167.199 103.116C167.806 103.116 168.308 103.075 168.704 102.993C169.101 102.911 169.422 102.736 169.667 102.468C169.912 102.188 170.034 101.786 170.034 101.261C170.034 100.747 169.889 100.345 169.597 100.053C169.305 99.7615 168.914 99.5923 168.424 99.5457C168.249 99.499 167.841 99.4757 167.199 99.4757H165.939V103.063C166.406 103.098 166.826 103.116 167.199 103.116ZM175.422 101.313C176.308 101.313 176.991 101.582 177.469 102.118C177.948 102.643 178.187 103.39 178.187 104.358V104.971L178.117 105.111H173.514C173.514 105.682 173.73 106.213 174.162 106.703C174.57 107.111 175.206 107.316 176.069 107.316C176.641 107.316 177.183 107.228 177.697 107.053L177.907 107.893C177.195 108.138 176.478 108.261 175.754 108.261C174.669 108.261 173.841 107.969 173.269 107.386C172.698 106.802 172.412 105.968 172.412 104.883C172.412 103.856 172.663 103.011 173.164 102.346C173.701 101.657 174.453 101.313 175.422 101.313ZM177.032 104.201C177.032 103.617 176.903 103.139 176.647 102.766C176.402 102.392 176.034 102.206 175.544 102.206C174.926 102.206 174.453 102.392 174.127 102.766C173.8 103.139 173.602 103.617 173.532 104.201H177.032ZM182.105 108.261C181.428 108.261 180.944 108.08 180.653 107.718C180.373 107.345 180.233 106.785 180.233 106.038V102.346H179.095V101.401H180.233V99.7557L181.37 99.6682V101.401H183.575V102.346H181.37V105.968C181.37 106.435 181.44 106.773 181.58 106.983C181.732 107.193 182.018 107.298 182.438 107.298C182.834 107.298 183.19 107.263 183.505 107.193L183.698 107.963C183.173 108.161 182.642 108.261 182.105 108.261ZM186.128 105.723C186.128 106.295 186.239 106.703 186.46 106.948C186.682 107.193 187.061 107.316 187.598 107.316C188.146 107.316 188.759 107.158 189.435 106.843V101.401H190.573V108.121H189.785L189.54 107.631C188.689 108.074 187.901 108.296 187.178 108.296C186.478 108.296 185.935 108.091 185.55 107.683C185.177 107.275 184.99 106.715 184.99 106.003V101.401H186.128V105.723ZM194.68 102.293C194.435 102.293 194.137 102.322 193.787 102.381C193.449 102.427 193.146 102.491 192.877 102.573L192.65 101.733C193.432 101.465 194.161 101.331 194.837 101.331C195.596 101.331 196.173 101.447 196.57 101.681C196.92 101.937 197.159 102.211 197.287 102.503C197.427 102.795 197.497 103.221 197.497 103.781V108.121H196.64L196.395 107.491C195.73 108.027 195.047 108.296 194.347 108.296C193.741 108.296 193.227 108.121 192.807 107.771C192.399 107.421 192.195 106.977 192.195 106.441C192.195 105.916 192.352 105.484 192.667 105.146C192.994 104.796 193.391 104.562 193.857 104.446C194.452 104.294 195.287 104.206 196.36 104.183V104.131C196.36 103.652 196.313 103.302 196.22 103.081C196.033 102.556 195.52 102.293 194.68 102.293ZM194.505 107.386C194.89 107.386 195.228 107.321 195.52 107.193C195.812 107.053 196.092 106.861 196.36 106.616V105.006C195.555 105.017 194.96 105.064 194.575 105.146C194.143 105.239 193.822 105.379 193.612 105.566C193.402 105.741 193.297 105.991 193.297 106.318C193.297 106.656 193.414 106.919 193.647 107.106C193.892 107.292 194.178 107.386 194.505 107.386ZM201.382 107.228C201.557 107.228 201.755 107.193 201.977 107.123L202.187 107.946C202.152 107.957 202.012 108.016 201.767 108.121C201.522 108.226 201.207 108.278 200.822 108.278C200.39 108.278 200.046 108.132 199.789 107.841C199.533 107.537 199.399 107.146 199.387 106.668V98.7932H200.489V106.266C200.489 106.581 200.542 106.82 200.647 106.983C200.752 107.146 200.997 107.228 201.382 107.228ZM205.412 102.293C205.167 102.293 204.87 102.322 204.52 102.381C204.182 102.427 203.878 102.491 203.61 102.573L203.382 101.733C204.164 101.465 204.893 101.331 205.57 101.331C206.328 101.331 206.906 101.447 207.302 101.681C207.652 101.937 207.892 102.211 208.02 102.503C208.16 102.795 208.23 103.221 208.23 103.781V108.121H207.372L207.127 107.491C206.462 108.027 205.78 108.296 205.08 108.296C204.473 108.296 203.96 108.121 203.54 107.771C203.132 107.421 202.927 106.977 202.927 106.441C202.927 105.916 203.085 105.484 203.4 105.146C203.727 104.796 204.123 104.562 204.59 104.446C205.185 104.294 206.019 104.206 207.092 104.183V104.131C207.092 103.652 207.046 103.302 206.952 103.081C206.766 102.556 206.252 102.293 205.412 102.293ZM205.237 107.386C205.622 107.386 205.961 107.321 206.252 107.193C206.544 107.053 206.824 106.861 207.092 106.616V105.006C206.287 105.017 205.692 105.064 205.307 105.146C204.876 105.239 204.555 105.379 204.345 105.566C204.135 105.741 204.03 105.991 204.03 106.318C204.03 106.656 204.147 106.919 204.38 107.106C204.625 107.292 204.911 107.386 205.237 107.386ZM214.564 103.851C214.564 103.279 214.453 102.871 214.232 102.626C214.022 102.381 213.648 102.258 213.112 102.258C212.54 102.258 211.922 102.416 211.257 102.731V108.121H210.119V101.401H210.907L211.152 101.961C211.957 101.517 212.744 101.296 213.514 101.296C214.226 101.296 214.768 101.5 215.142 101.908C215.515 102.305 215.702 102.859 215.702 103.571V108.121H214.564V103.851ZM222.13 107.806C221.547 108.109 220.958 108.261 220.363 108.261C219.289 108.261 218.467 107.846 217.895 107.018C217.487 106.411 217.283 105.7 217.283 104.883C217.283 104.055 217.458 103.355 217.808 102.783C218.169 102.2 218.665 101.78 219.295 101.523C219.587 101.383 219.966 101.313 220.433 101.313C220.981 101.313 221.506 101.43 222.008 101.663L222.34 101.821L222.463 101.401H223.285V108.436C223.285 109.054 223.215 109.55 223.075 109.923C222.935 110.296 222.696 110.641 222.358 110.956C222.078 111.224 221.728 111.428 221.308 111.568C220.899 111.72 220.439 111.796 219.925 111.796C219.599 111.796 219.243 111.755 218.858 111.673C218.484 111.591 218.158 111.486 217.878 111.358L218.175 110.553C218.84 110.786 219.371 110.903 219.768 110.903C220.468 110.903 221.016 110.734 221.413 110.396C221.809 110.057 222.043 109.579 222.113 108.961C222.124 108.832 222.13 108.506 222.13 107.981V107.806ZM220.625 107.333C221.209 107.333 221.71 107.211 222.13 106.966V102.573C221.605 102.34 221.086 102.223 220.573 102.223C219.873 102.223 219.342 102.451 218.98 102.906C218.619 103.361 218.438 103.967 218.438 104.726C218.438 105.274 218.543 105.758 218.753 106.178C218.963 106.598 219.249 106.901 219.61 107.088C219.902 107.251 220.24 107.333 220.625 107.333ZM227.451 102.293C227.206 102.293 226.909 102.322 226.559 102.381C226.221 102.427 225.917 102.491 225.649 102.573L225.421 101.733C226.203 101.465 226.932 101.331 227.609 101.331C228.367 101.331 228.945 101.447 229.341 101.681C229.691 101.937 229.931 102.211 230.059 102.503C230.199 102.795 230.269 103.221 230.269 103.781V108.121H229.411L229.166 107.491C228.501 108.027 227.819 108.296 227.119 108.296C226.512 108.296 225.999 108.121 225.579 107.771C225.171 107.421 224.966 106.977 224.966 106.441C224.966 105.916 225.124 105.484 225.439 105.146C225.766 104.796 226.162 104.562 226.629 104.446C227.224 104.294 228.058 104.206 229.131 104.183V104.131C229.131 103.652 229.085 103.302 228.991 103.081C228.805 102.556 228.291 102.293 227.451 102.293ZM227.276 107.386C227.661 107.386 228 107.321 228.291 107.193C228.583 107.053 228.863 106.861 229.131 106.616V105.006C228.326 105.017 227.731 105.064 227.346 105.146C226.915 105.239 226.594 105.379 226.384 105.566C226.174 105.741 226.069 105.991 226.069 106.318C226.069 106.656 226.186 106.919 226.419 107.106C226.664 107.292 226.95 107.386 227.276 107.386ZM236.603 103.851C236.603 103.279 236.493 102.871 236.271 102.626C236.061 102.381 235.688 102.258 235.151 102.258C234.579 102.258 233.961 102.416 233.296 102.731V108.121H232.158V101.401H232.946L233.191 101.961C233.996 101.517 234.783 101.296 235.553 101.296C236.265 101.296 236.808 101.5 237.181 101.908C237.554 102.305 237.741 102.859 237.741 103.571V108.121H236.603V103.851ZM249.512 107.543C248.859 107.928 248.048 108.121 247.08 108.121H243.685V98.4957H247.08C248.037 98.4957 248.847 98.694 249.512 99.0907C250.177 99.4757 250.691 100.012 251.052 100.701C251.426 101.471 251.612 102.34 251.612 103.308C251.612 104.335 251.426 105.198 251.052 105.898C250.691 106.61 250.177 107.158 249.512 107.543ZM246.992 99.4932H244.84V107.106H246.992C247.774 107.106 248.398 106.954 248.865 106.651C249.343 106.336 249.717 105.898 249.985 105.338C250.218 104.86 250.335 104.183 250.335 103.308C250.335 102.573 250.201 101.908 249.932 101.313C249.629 100.718 249.285 100.286 248.9 100.018C248.398 99.6682 247.762 99.4932 246.992 99.4932ZM253.867 100.106C253.657 100.106 253.482 100.036 253.342 99.8957C253.202 99.744 253.132 99.569 253.132 99.3707C253.132 99.184 253.202 99.0207 253.342 98.8807C253.482 98.729 253.657 98.6532 253.867 98.6532C254.065 98.6532 254.234 98.729 254.374 98.8807C254.514 99.0207 254.584 99.184 254.584 99.3707C254.584 99.569 254.514 99.744 254.374 99.8957C254.246 100.036 254.077 100.106 253.867 100.106ZM254.427 108.121H253.289V101.401H254.427V108.121ZM264.458 103.851C264.458 102.754 264.021 102.206 263.146 102.206C262.714 102.206 262.178 102.404 261.536 102.801C261.571 102.929 261.588 103.186 261.588 103.571V108.121H260.451V103.851C260.451 102.754 260.008 102.206 259.121 102.206C258.701 102.206 258.182 102.375 257.563 102.713V108.121H256.426V101.401H257.213L257.458 101.961C257.855 101.692 258.223 101.506 258.561 101.401C258.829 101.331 259.138 101.296 259.488 101.296C259.873 101.296 260.212 101.372 260.503 101.523C260.807 101.675 261.052 101.885 261.238 102.153C261.623 101.873 261.991 101.663 262.341 101.523C262.691 101.372 263.076 101.296 263.496 101.296C264.184 101.296 264.709 101.506 265.071 101.926C265.444 102.334 265.631 102.882 265.631 103.571V108.121H264.458V103.851ZM268.665 105.723C268.665 106.295 268.776 106.703 268.998 106.948C269.219 107.193 269.598 107.316 270.135 107.316C270.683 107.316 271.296 107.158 271.973 106.843V101.401H273.11V108.121H272.323L272.078 107.631C271.226 108.074 270.438 108.296 269.715 108.296C269.015 108.296 268.473 108.091 268.088 107.683C267.714 107.275 267.528 106.715 267.528 106.003V101.401H268.665V105.723ZM277.042 107.228C277.217 107.228 277.415 107.193 277.637 107.123L277.847 107.946C277.812 107.957 277.672 108.016 277.427 108.121C277.182 108.226 276.867 108.278 276.482 108.278C276.05 108.278 275.706 108.132 275.45 107.841C275.193 107.537 275.059 107.146 275.047 106.668V98.7932H276.15V106.266C276.15 106.581 276.202 106.82 276.307 106.983C276.412 107.146 276.657 107.228 277.042 107.228ZM281.073 102.293C280.828 102.293 280.53 102.322 280.18 102.381C279.842 102.427 279.538 102.491 279.27 102.573L279.043 101.733C279.824 101.465 280.553 101.331 281.23 101.331C281.988 101.331 282.566 101.447 282.963 101.681C283.313 101.937 283.552 102.211 283.68 102.503C283.82 102.795 283.89 103.221 283.89 103.781V108.121H283.033L282.788 107.491C282.123 108.027 281.44 108.296 280.74 108.296C280.133 108.296 279.62 108.121 279.2 107.771C278.792 107.421 278.588 106.977 278.588 106.441C278.588 105.916 278.745 105.484 279.06 105.146C279.387 104.796 279.783 104.562 280.25 104.446C280.845 104.294 281.679 104.206 282.753 104.183V104.131C282.753 103.652 282.706 103.302 282.613 103.081C282.426 102.556 281.913 102.293 281.073 102.293ZM280.898 107.386C281.283 107.386 281.621 107.321 281.913 107.193C282.204 107.053 282.484 106.861 282.753 106.616V105.006C281.948 105.017 281.353 105.064 280.968 105.146C280.536 105.239 280.215 105.379 280.005 105.566C279.795 105.741 279.69 105.991 279.69 106.318C279.69 106.656 279.807 106.919 280.04 107.106C280.285 107.292 280.571 107.386 280.898 107.386ZM286.392 100.106C286.182 100.106 286.007 100.036 285.867 99.8957C285.727 99.744 285.657 99.569 285.657 99.3707C285.657 99.184 285.727 99.0207 285.867 98.8807C286.007 98.729 286.182 98.6532 286.392 98.6532C286.59 98.6532 286.759 98.729 286.899 98.8807C287.039 99.0207 287.109 99.184 287.109 99.3707C287.109 99.569 287.039 99.744 286.899 99.8957C286.771 100.036 286.602 100.106 286.392 100.106ZM286.952 108.121H285.814V101.401H286.952V108.121ZM295.607 108.261C294.603 108.261 293.833 107.951 293.297 107.333C292.76 106.703 292.492 105.869 292.492 104.831C292.492 103.687 292.813 102.795 293.454 102.153C294.073 101.558 294.843 101.261 295.764 101.261C296.383 101.261 296.908 101.366 297.339 101.576V98.8107H298.529V108.121H297.689L297.497 107.648C296.867 108.056 296.237 108.261 295.607 108.261ZM295.834 107.298C296.149 107.298 296.412 107.269 296.622 107.211C296.843 107.141 297.083 107.036 297.339 106.896V102.451C296.908 102.276 296.412 102.188 295.852 102.188C295.128 102.188 294.58 102.421 294.207 102.888C293.845 103.355 293.664 103.979 293.664 104.761C293.664 105.531 293.845 106.149 294.207 106.616C294.58 107.071 295.123 107.298 295.834 107.298ZM301.103 100.106C300.893 100.106 300.718 100.036 300.578 99.8957C300.438 99.744 300.368 99.569 300.368 99.3707C300.368 99.184 300.438 99.0207 300.578 98.8807C300.718 98.729 300.893 98.6532 301.103 98.6532C301.301 98.6532 301.47 98.729 301.61 98.8807C301.75 99.0207 301.82 99.184 301.82 99.3707C301.82 99.569 301.75 99.744 301.61 99.8957C301.482 100.036 301.313 100.106 301.103 100.106ZM301.663 108.121H300.525V101.401H301.663V108.121ZM310.195 107.071C310.895 107.071 311.479 106.948 311.945 106.703C312.412 106.446 312.645 106.073 312.645 105.583C312.645 105.151 312.459 104.807 312.085 104.551C311.712 104.294 311.175 104.037 310.475 103.781L310.073 103.623C309.198 103.273 308.544 102.912 308.113 102.538C307.681 102.165 307.465 101.646 307.465 100.981C307.465 100.106 307.751 99.4465 308.323 99.0032C308.661 98.7465 309.017 98.5657 309.39 98.4607C309.764 98.344 310.201 98.2857 310.703 98.2857C311.414 98.2857 312.295 98.5073 313.345 98.9507L313.013 99.9832C312.079 99.6098 311.356 99.4232 310.843 99.4232C310.166 99.4232 309.629 99.5515 309.233 99.8082C308.848 100.053 308.655 100.403 308.655 100.858C308.655 101.173 308.754 101.442 308.953 101.663C309.163 101.885 309.39 102.06 309.635 102.188C309.892 102.305 310.248 102.456 310.703 102.643C310.889 102.725 311.059 102.789 311.21 102.836C311.817 103.081 312.289 103.302 312.628 103.501C312.978 103.687 313.275 103.944 313.52 104.271C313.765 104.597 313.888 105.011 313.888 105.513C313.888 106.411 313.526 107.094 312.803 107.561C312.079 108.027 311.199 108.261 310.16 108.261C309.624 108.261 309.18 108.214 308.83 108.121C308.48 108.027 307.949 107.858 307.238 107.613L307.64 106.493C308.667 106.878 309.519 107.071 310.195 107.071ZM316.21 100.106C316 100.106 315.825 100.036 315.685 99.8957C315.545 99.744 315.475 99.569 315.475 99.3707C315.475 99.184 315.545 99.0207 315.685 98.8807C315.825 98.729 316 98.6532 316.21 98.6532C316.409 98.6532 316.578 98.729 316.718 98.8807C316.858 99.0207 316.928 99.184 316.928 99.3707C316.928 99.569 316.858 99.744 316.718 99.8957C316.589 100.036 316.42 100.106 316.21 100.106ZM316.77 108.121H315.633V101.401H316.77V108.121ZM323.215 103.851C323.215 103.279 323.104 102.871 322.882 102.626C322.672 102.381 322.299 102.258 321.762 102.258C321.191 102.258 320.572 102.416 319.907 102.731V108.121H318.77V101.401H319.557L319.802 101.961C320.607 101.517 321.395 101.296 322.165 101.296C322.876 101.296 323.419 101.5 323.792 101.908C324.166 102.305 324.352 102.859 324.352 103.571V108.121H323.215V103.851ZM326.861 100.106C326.651 100.106 326.476 100.036 326.336 99.8957C326.196 99.744 326.126 99.569 326.126 99.3707C326.126 99.184 326.196 99.0207 326.336 98.8807C326.476 98.729 326.651 98.6532 326.861 98.6532C327.059 98.6532 327.228 98.729 327.368 98.8807C327.508 99.0207 327.578 99.184 327.578 99.3707C327.578 99.569 327.508 99.744 327.368 99.8957C327.24 100.036 327.071 100.106 326.861 100.106ZM327.421 108.121H326.283V101.401H327.421V108.121Z" fill="#801D94"/>
</svg>
